<svg width="90" height="102" viewBox="0 0 90 102" fill="none" xmlns="http://www.w3.org/2000/svg">
<path d="M89.625 53.0002C89.6249 54.6524 88.7434 56.1789 87.3125 57.005L12.3125 100.307C10.9712 101.081 9.33785 101.13 7.95996 100.452L7.6875 100.307C6.25681 99.4807 5.37523 97.954 5.375 96.3019V9.69839C5.37515 8.14938 6.14989 6.7101 7.42578 5.85562L7.6875 5.69254C9.02884 4.91827 10.6622 4.87055 12.04 5.548L12.3125 5.69254L87.3018 48.9884L87.5742 49.1574C88.8501 50.0119 89.625 51.451 89.625 53.0002Z" fill="#F3D9B1" stroke="black" stroke-width="0.75"/>
<path d="M84.625 48.3018C84.6249 49.954 83.7434 51.4805 82.3125 52.3066L7.3125 95.6084C5.97116 96.3827 4.33785 96.4313 2.95996 95.7539L2.6875 95.6084C1.25681 94.7823 0.375231 93.2556 0.375 91.6035V5C0.375151 3.45099 1.14989 2.0117 2.42578 1.15723L2.6875 0.994141C4.02884 0.219874 5.66218 0.172157 7.04004 0.849609L7.3125 0.994141L82.3018 44.29L82.5742 44.459C83.8501 45.3135 84.625 46.7526 84.625 48.3018Z" fill="white" stroke="black" stroke-width="0.75"/>
</svg>
