<svg width="105" height="105" viewBox="0 0 105 105" fill="none" xmlns="http://www.w3.org/2000/svg">
<mask id="path-1-inside-1_1_59" fill="white">
<path d="M71.3301 34.5C71.3301 36.433 72.8971 38 74.8301 38H100.83C102.763 38 104.33 39.567 104.33 41.5V67.8301C104.33 69.7631 102.763 71.3301 100.83 71.3301H74.8301C72.8971 71.3301 71.3301 72.8971 71.3301 74.8301V100.83C71.3301 102.763 69.7631 104.33 67.8301 104.33H41.5C39.567 104.33 38 102.763 38 100.83V74.8301C38 72.8971 36.433 71.3301 34.5 71.3301H8.5C6.567 71.3301 5 69.7631 5 67.8301V41.5C5 39.567 6.567 38 8.5 38H34.5C36.433 38 38 36.433 38 34.5V8.5C38 6.567 39.567 5 41.5 5H67.8301C69.7631 5 71.3301 6.567 71.3301 8.5V34.5Z"/>
</mask>
<path d="M71.3301 34.5C71.3301 36.433 72.8971 38 74.8301 38H100.83C102.763 38 104.33 39.567 104.33 41.5V67.8301C104.33 69.7631 102.763 71.3301 100.83 71.3301H74.8301C72.8971 71.3301 71.3301 72.8971 71.3301 74.8301V100.83C71.3301 102.763 69.7631 104.33 67.8301 104.33H41.5C39.567 104.33 38 102.763 38 100.83V74.8301C38 72.8971 36.433 71.3301 34.5 71.3301H8.5C6.567 71.3301 5 69.7631 5 67.8301V41.5C5 39.567 6.567 38 8.5 38H34.5C36.433 38 38 36.433 38 34.5V8.5C38 6.567 39.567 5 41.5 5H67.8301C69.7631 5 71.3301 6.567 71.3301 8.5V34.5Z" fill="#A5D6A5"/>
<path d="M74.8301 38V38.75H100.83V38V37.25H74.8301V38ZM104.33 41.5H103.58V67.8301H104.33H105.08V41.5H104.33ZM100.83 71.3301V70.5801H74.8301V71.3301V72.0801H100.83V71.3301ZM71.3301 74.8301H70.5801V100.83H71.3301H72.0801V74.8301H71.3301ZM67.8301 104.33V103.58H41.5V104.33V105.08H67.8301V104.33ZM38 100.83H38.75V74.8301H38H37.25V100.83H38ZM34.5 71.3301V70.5801H8.5V71.3301V72.0801H34.5V71.3301ZM5 67.8301H5.75V41.5H5H4.25V67.8301H5ZM8.5 38V38.75H34.5V38V37.25H8.5V38ZM38 34.5H38.75V8.5H38H37.25V34.5H38ZM41.5 5V5.75H67.8301V5V4.25H41.5V5ZM71.3301 8.5H70.5801V34.5H71.3301H72.0801V8.5H71.3301ZM67.8301 5V5.75C69.3489 5.75 70.5801 6.98122 70.5801 8.5H71.3301H72.0801C72.0801 6.15279 70.1773 4.25 67.8301 4.25V5ZM38 8.5H38.75C38.75 6.98122 39.9812 5.75 41.5 5.75V5V4.25C39.1528 4.25 37.25 6.15279 37.25 8.5H38ZM34.5 38V38.75C36.8472 38.75 38.75 36.8472 38.75 34.5H38H37.25C37.25 36.0188 36.0188 37.25 34.5 37.25V38ZM5 41.5H5.75C5.75 39.9812 6.98122 38.75 8.5 38.75V38V37.25C6.15279 37.25 4.25 39.1528 4.25 41.5H5ZM8.5 71.3301V70.5801C6.98122 70.5801 5.75 69.3489 5.75 67.8301H5H4.25C4.25 70.1773 6.15279 72.0801 8.5 72.0801V71.3301ZM38 74.8301H38.75C38.75 72.4829 36.8472 70.5801 34.5 70.5801V71.3301V72.0801C36.0188 72.0801 37.25 73.3113 37.25 74.8301H38ZM41.5 104.33V103.58C39.9812 103.58 38.75 102.349 38.75 100.83H38H37.25C37.25 103.177 39.1528 105.08 41.5 105.08V104.33ZM71.3301 100.83H70.5801C70.5801 102.349 69.3489 103.58 67.8301 103.58V104.33V105.08C70.1773 105.08 72.0801 103.177 72.0801 100.83H71.3301ZM74.8301 71.3301V70.5801C72.4829 70.5801 70.5801 72.4829 70.5801 74.8301H71.3301H72.0801C72.0801 73.3113 73.3113 72.0801 74.8301 72.0801V71.3301ZM104.33 67.8301H103.58C103.58 69.3489 102.349 70.5801 100.83 70.5801V71.3301V72.0801C103.177 72.0801 105.08 70.1773 105.08 67.8301H104.33ZM100.83 38V38.75C102.349 38.75 103.58 39.9812 103.58 41.5H104.33H105.08C105.08 39.1528 103.177 37.25 100.83 37.25V38ZM74.8301 38V37.25C73.3113 37.25 72.0801 36.0188 72.0801 34.5H71.3301H70.5801C70.5801 36.8472 72.4829 38.75 74.8301 38.75V38Z" fill="black" mask="url(#path-1-inside-1_1_59)"/>
<mask id="path-3-inside-2_1_59" fill="white">
<path d="M66.3301 29.5C66.3301 31.433 67.8971 33 69.8301 33H95.8301C97.7631 33 99.3301 34.567 99.3301 36.5V62.8301C99.3301 64.7631 97.7631 66.3301 95.8301 66.3301H69.8301C67.8971 66.3301 66.3301 67.8971 66.3301 69.8301V95.8301C66.3301 97.7631 64.7631 99.3301 62.8301 99.3301H36.5C34.567 99.3301 33 97.7631 33 95.8301V69.8301C33 67.8971 31.433 66.3301 29.5 66.3301H3.5C1.567 66.3301 0 64.7631 0 62.8301V36.5C0 34.567 1.567 33 3.5 33H29.5C31.433 33 33 31.433 33 29.5V3.5C33 1.567 34.567 0 36.5 0H62.8301C64.7631 0 66.3301 1.567 66.3301 3.5V29.5Z"/>
</mask>
<path d="M66.3301 29.5C66.3301 31.433 67.8971 33 69.8301 33H95.8301C97.7631 33 99.3301 34.567 99.3301 36.5V62.8301C99.3301 64.7631 97.7631 66.3301 95.8301 66.3301H69.8301C67.8971 66.3301 66.3301 67.8971 66.3301 69.8301V95.8301C66.3301 97.7631 64.7631 99.3301 62.8301 99.3301H36.5C34.567 99.3301 33 97.7631 33 95.8301V69.8301C33 67.8971 31.433 66.3301 29.5 66.3301H3.5C1.567 66.3301 0 64.7631 0 62.8301V36.5C0 34.567 1.567 33 3.5 33H29.5C31.433 33 33 31.433 33 29.5V3.5C33 1.567 34.567 0 36.5 0H62.8301C64.7631 0 66.3301 1.567 66.3301 3.5V29.5Z" fill="white"/>
<path d="M69.8301 33V33.75H95.8301V33V32.25H69.8301V33ZM99.3301 36.5H98.5801V62.8301H99.3301H100.08V36.5H99.3301ZM95.8301 66.3301V65.5801H69.8301V66.3301V67.0801H95.8301V66.3301ZM66.3301 69.8301H65.5801V95.8301H66.3301H67.0801V69.8301H66.3301ZM62.8301 99.3301V98.5801H36.5V99.3301V100.08H62.8301V99.3301ZM33 95.8301H33.75V69.8301H33H32.25V95.8301H33ZM29.5 66.3301V65.5801H3.5V66.3301V67.0801H29.5V66.3301ZM0 62.8301H0.75V36.5H0H-0.75V62.8301H0ZM3.5 33V33.75H29.5V33V32.25H3.5V33ZM33 29.5H33.75V3.5H33H32.25V29.5H33ZM36.5 0V0.75H62.8301V0V-0.75H36.5V0ZM66.3301 3.5H65.5801V29.5H66.3301H67.0801V3.5H66.3301ZM62.8301 0V0.75C64.3489 0.75 65.5801 1.98122 65.5801 3.5H66.3301H67.0801C67.0801 1.15279 65.1773 -0.75 62.8301 -0.75V0ZM33 3.5H33.75C33.75 1.98122 34.9812 0.75 36.5 0.75V0V-0.75C34.1528 -0.75 32.25 1.15279 32.25 3.5H33ZM29.5 33V33.75C31.8472 33.75 33.75 31.8472 33.75 29.5H33H32.25C32.25 31.0188 31.0188 32.25 29.5 32.25V33ZM0 36.5H0.75C0.75 34.9812 1.98122 33.75 3.5 33.75V33V32.25C1.15279 32.25 -0.75 34.1528 -0.75 36.5H0ZM3.5 66.3301V65.5801C1.98122 65.5801 0.75 64.3489 0.75 62.8301H0H-0.75C-0.75 65.1773 1.15279 67.0801 3.5 67.0801V66.3301ZM33 69.8301H33.75C33.75 67.4829 31.8472 65.5801 29.5 65.5801V66.3301V67.0801C31.0188 67.0801 32.25 68.3113 32.25 69.8301H33ZM36.5 99.3301V98.5801C34.9812 98.5801 33.75 97.3489 33.75 95.8301H33H32.25C32.25 98.1773 34.1528 100.08 36.5 100.08V99.3301ZM66.3301 95.8301H65.5801C65.5801 97.3489 64.3489 98.5801 62.8301 98.5801V99.3301V100.08C65.1773 100.08 67.0801 98.1773 67.0801 95.8301H66.3301ZM69.8301 66.3301V65.5801C67.4829 65.5801 65.5801 67.4829 65.5801 69.8301H66.3301H67.0801C67.0801 68.3113 68.3113 67.0801 69.8301 67.0801V66.3301ZM99.3301 62.8301H98.5801C98.5801 64.3489 97.3489 65.5801 95.8301 65.5801V66.3301V67.0801C98.1773 67.0801 100.08 65.1773 100.08 62.8301H99.3301ZM95.8301 33V33.75C97.3489 33.75 98.5801 34.9812 98.5801 36.5H99.3301H100.08C100.08 34.1528 98.1773 32.25 95.8301 32.25V33ZM69.8301 33V32.25C68.3113 32.25 67.0801 31.0188 67.0801 29.5H66.3301H65.5801C65.5801 31.8472 67.4829 33.75 69.8301 33.75V33Z" fill="black" mask="url(#path-3-inside-2_1_59)"/>
</svg>
